<svg xmlns="http://www.w3.org/2000/svg" viewBox="0 0 16 16" shape-rendering="crispEdges">
  <rect width="16" height="16" fill="#0d120e"/>
  <rect y="5" width="16" height="2" fill="#102016"/>
  <rect x="1" y="5" width="2" height="1" fill="#263d26"/>
  <rect x="12" y="5" width="3" height="1" fill="#1f3320"/>
  <rect y="6" width="16" height="1" fill="#6f7a56"/>
  <rect y="7" width="16" height="9" fill="#262321"/>
  <rect y="7" width="16" height="1" fill="#394832"/>

  <rect x="7" y="3" width="2" height="1" fill="#5e4a31"/>
  <rect x="6" y="4" width="4" height="1" fill="#6e5637"/>
  <rect x="5" y="5" width="6" height="1" fill="#604a30"/>
  <rect x="5" y="6" width="6" height="1" fill="#453424"/>
  <rect x="7" y="4" width="1" height="1" fill="#c49a55"/>
  <rect x="9" y="5" width="1" height="1" fill="#2f251c"/>

  <rect x="8" y="6" width="1" height="3" fill="#17120f"/>
  <rect x="7" y="9" width="2" height="1" fill="#17120f"/>
  <rect x="5" y="10" width="3" height="1" fill="#18130f"/>
  <rect x="4" y="11" width="2" height="1" fill="#18130f"/>
  <rect x="4" y="12" width="1" height="1" fill="#18130f"/>
  <rect x="9" y="9" width="1" height="2" fill="#19130f"/>
  <rect x="10" y="11" width="2" height="1" fill="#19130f"/>

  <rect x="11" y="10" width="1" height="1" fill="#d9c66f"/>
  <rect x="12" y="11" width="1" height="1" fill="#b6ca78"/>
</svg>
